<?xml version="1.0" encoding="UTF-8"?><svg id="Calque_2" xmlns="http://www.w3.org/2000/svg" xmlns:xlink="http://www.w3.org/1999/xlink" viewBox="0 0 1920 3839"><defs><style>.cls-1,.cls-2{fill:none;}.cls-3{clip-path:url(#clippath);}.cls-4{clip-path:url(#clippath-1);}.cls-2{stroke:#000;stroke-miterlimit:10;stroke-width:.25px;}</style><clipPath id="clippath"><rect class="cls-1" width="1920" height="1920"/></clipPath><clipPath id="clippath-1"><rect class="cls-1" y="1919" width="1920" height="1920"/></clipPath></defs><g id="Calque_1-2"><g id="GRID"><g id="GRIL"><g class="cls-3"><g id="Groupe_32"><line id="Ligne_48" class="cls-2" x1="1919.78" y1=".22" x2="1919.78" y2="1919.78"/><line id="Ligne_49" class="cls-2" x1="1857.85" y1=".22" x2="1857.85" y2="1919.78"/><line id="Ligne_50" class="cls-2" x1="1795.93" y1=".22" x2="1795.93" y2="1919.78"/><line id="Ligne_51" class="cls-2" x1="1734.01" y1=".22" x2="1734.01" y2="1919.78"/><line id="Ligne_52" class="cls-2" x1="1672.09" y1=".22" x2="1672.09" y2="1919.78"/><line id="Ligne_53" class="cls-2" x1="1610.17" y1=".22" x2="1610.17" y2="1919.78"/><line id="Ligne_54" class="cls-2" x1="1548.25" y1=".22" x2="1548.25" y2="1919.78"/><line id="Ligne_55" class="cls-2" x1="1486.33" y1=".22" x2="1486.33" y2="1919.78"/><line id="Ligne_56" class="cls-2" x1="1424.41" y1=".22" x2="1424.41" y2="1919.78"/><line id="Ligne_57" class="cls-2" x1="1362.49" y1=".22" x2="1362.49" y2="1919.78"/><line id="Ligne_58" class="cls-2" x1="1300.57" y1=".22" x2="1300.57" y2="1919.78"/><line id="Ligne_59" class="cls-2" x1="1238.65" y1=".22" x2="1238.65" y2="1919.78"/><line id="Ligne_60" class="cls-2" x1="1176.72" y1=".22" x2="1176.72" y2="1919.78"/><line id="Ligne_61" class="cls-2" x1="1114.8" y1=".22" x2="1114.8" y2="1919.78"/><line id="Ligne_62" class="cls-2" x1="1052.88" y1=".22" x2="1052.88" y2="1919.78"/><line id="Ligne_63" class="cls-2" x1="990.96" y1=".22" x2="990.96" y2="1919.78"/><line id="Ligne_64" class="cls-2" x1="929.04" y1=".22" x2="929.04" y2="1919.78"/><line id="Ligne_65" class="cls-2" x1="867.12" y1=".22" x2="867.12" y2="1919.78"/><line id="Ligne_66" class="cls-2" x1="805.2" y1=".22" x2="805.2" y2="1919.78"/><line id="Ligne_67" class="cls-2" x1="743.28" y1=".22" x2="743.28" y2="1919.78"/><line id="Ligne_68" class="cls-2" x1="681.35" y1=".22" x2="681.35" y2="1919.78"/><line id="Ligne_69" class="cls-2" x1="619.43" y1=".22" x2="619.43" y2="1919.78"/><line id="Ligne_70" class="cls-2" x1="557.51" y1=".22" x2="557.51" y2="1919.78"/><line id="Ligne_71" class="cls-2" x1="495.59" y1=".22" x2="495.59" y2="1919.78"/><line id="Ligne_72" class="cls-2" x1="433.67" y1=".22" x2="433.67" y2="1919.78"/><line id="Ligne_73" class="cls-2" x1="371.75" y1=".22" x2="371.75" y2="1919.78"/><line id="Ligne_74" class="cls-2" x1="309.83" y1=".22" x2="309.83" y2="1919.78"/><line id="Ligne_75" class="cls-2" x1="247.91" y1=".22" x2="247.91" y2="1919.78"/><line id="Ligne_76" class="cls-2" x1="185.99" y1=".22" x2="185.99" y2="1919.78"/><line id="Ligne_77" class="cls-2" x1="124.07" y1=".22" x2="124.07" y2="1919.78"/><line id="Ligne_78" class="cls-2" x1="62.14" y1=".22" x2="62.14" y2="1919.78"/><line id="Ligne_79" class="cls-2" x1=".22" y1=".22" x2=".22" y2="1919.78"/><line id="Ligne_80" class="cls-2" x1=".22" y1=".22" x2="1919.78" y2=".22"/><line id="Ligne_81" class="cls-2" x1=".22" y1="62.14" x2="1919.78" y2="62.15"/><line id="Ligne_82" class="cls-2" x1=".22" y1="124.07" x2="1919.78" y2="124.07"/><line id="Ligne_83" class="cls-2" x1=".22" y1="185.99" x2="1919.78" y2="185.99"/><line id="Ligne_84" class="cls-2" x1=".22" y1="247.91" x2="1919.78" y2="247.91"/><line id="Ligne_85" class="cls-2" x1=".22" y1="309.83" x2="1919.78" y2="309.83"/><line id="Ligne_86" class="cls-2" x1=".22" y1="371.75" x2="1919.78" y2="371.75"/><line id="Ligne_87" class="cls-2" x1=".22" y1="433.67" x2="1919.78" y2="433.67"/><line id="Ligne_88" class="cls-2" x1=".22" y1="495.59" x2="1919.78" y2="495.59"/><line id="Ligne_89" class="cls-2" x1=".22" y1="557.51" x2="1919.78" y2="557.51"/><line id="Ligne_90" class="cls-2" x1=".22" y1="619.43" x2="1919.78" y2="619.44"/><line id="Ligne_91" class="cls-2" x1=".22" y1="681.35" x2="1919.78" y2="681.36"/><line id="Ligne_92" class="cls-2" x1=".22" y1="743.28" x2="1919.78" y2="743.28"/><line id="Ligne_93" class="cls-2" x1=".22" y1="805.2" x2="1919.78" y2="805.2"/><line id="Ligne_94" class="cls-2" x1=".22" y1="867.12" x2="1919.78" y2="867.12"/><line id="Ligne_95" class="cls-2" x1=".22" y1="929.04" x2="1919.78" y2="929.04"/><line id="Ligne_96" class="cls-2" x1=".22" y1="990.96" x2="1919.78" y2="990.96"/><line id="Ligne_97" class="cls-2" x1=".22" y1="1052.88" x2="1919.78" y2="1052.88"/><line id="Ligne_98" class="cls-2" x1=".22" y1="1114.8" x2="1919.78" y2="1114.8"/><line id="Ligne_99" class="cls-2" x1=".22" y1="1176.72" x2="1919.78" y2="1176.72"/><line id="Ligne_100" class="cls-2" x1=".22" y1="1238.64" x2="1919.78" y2="1238.65"/><line id="Ligne_101" class="cls-2" x1=".22" y1="1300.57" x2="1919.78" y2="1300.57"/><line id="Ligne_102" class="cls-2" x1=".22" y1="1362.49" x2="1919.78" y2="1362.49"/><line id="Ligne_103" class="cls-2" x1=".22" y1="1424.41" x2="1919.78" y2="1424.41"/><line id="Ligne_104" class="cls-2" x1=".22" y1="1486.33" x2="1919.78" y2="1486.33"/><line id="Ligne_105" class="cls-2" x1=".22" y1="1548.25" x2="1919.78" y2="1548.25"/><line id="Ligne_106" class="cls-2" x1=".22" y1="1610.17" x2="1919.78" y2="1610.17"/><line id="Ligne_107" class="cls-2" x1=".22" y1="1672.09" x2="1919.78" y2="1672.09"/><line id="Ligne_108" class="cls-2" x1=".22" y1="1734.01" x2="1919.78" y2="1734.01"/><line id="Ligne_109" class="cls-2" x1=".22" y1="1795.93" x2="1919.78" y2="1795.93"/><line id="Ligne_110" class="cls-2" x1=".22" y1="1857.85" x2="1919.78" y2="1857.86"/><line id="Ligne_111" class="cls-2" x1=".22" y1="1919.78" x2="1919.78" y2="1919.78"/></g></g></g><g id="GRIL-2"><g class="cls-4"><g id="Groupe_32-2"><line id="Ligne_48-2" class="cls-2" x1="1919.78" y1="1919.22" x2="1919.78" y2="3838.78"/><line id="Ligne_49-2" class="cls-2" x1="1857.85" y1="1919.22" x2="1857.85" y2="3838.78"/><line id="Ligne_50-2" class="cls-2" x1="1795.93" y1="1919.22" x2="1795.93" y2="3838.78"/><line id="Ligne_51-2" class="cls-2" x1="1734.01" y1="1919.22" x2="1734.01" y2="3838.78"/><line id="Ligne_52-2" class="cls-2" x1="1672.09" y1="1919.22" x2="1672.09" y2="3838.78"/><line id="Ligne_53-2" class="cls-2" x1="1610.17" y1="1919.22" x2="1610.17" y2="3838.78"/><line id="Ligne_54-2" class="cls-2" x1="1548.25" y1="1919.22" x2="1548.25" y2="3838.78"/><line id="Ligne_55-2" class="cls-2" x1="1486.33" y1="1919.22" x2="1486.33" y2="3838.78"/><line id="Ligne_56-2" class="cls-2" x1="1424.41" y1="1919.22" x2="1424.41" y2="3838.78"/><line id="Ligne_57-2" class="cls-2" x1="1362.49" y1="1919.22" x2="1362.49" y2="3838.78"/><line id="Ligne_58-2" class="cls-2" x1="1300.57" y1="1919.22" x2="1300.57" y2="3838.78"/><line id="Ligne_59-2" class="cls-2" x1="1238.65" y1="1919.22" x2="1238.65" y2="3838.78"/><line id="Ligne_60-2" class="cls-2" x1="1176.72" y1="1919.22" x2="1176.72" y2="3838.78"/><line id="Ligne_61-2" class="cls-2" x1="1114.8" y1="1919.22" x2="1114.8" y2="3838.78"/><line id="Ligne_62-2" class="cls-2" x1="1052.88" y1="1919.22" x2="1052.88" y2="3838.78"/><line id="Ligne_63-2" class="cls-2" x1="990.96" y1="1919.22" x2="990.96" y2="3838.78"/><line id="Ligne_64-2" class="cls-2" x1="929.04" y1="1919.22" x2="929.04" y2="3838.78"/><line id="Ligne_65-2" class="cls-2" x1="867.12" y1="1919.22" x2="867.12" y2="3838.78"/><line id="Ligne_66-2" class="cls-2" x1="805.2" y1="1919.22" x2="805.2" y2="3838.78"/><line id="Ligne_67-2" class="cls-2" x1="743.28" y1="1919.22" x2="743.28" y2="3838.78"/><line id="Ligne_68-2" class="cls-2" x1="681.35" y1="1919.22" x2="681.35" y2="3838.78"/><line id="Ligne_69-2" class="cls-2" x1="619.43" y1="1919.22" x2="619.43" y2="3838.78"/><line id="Ligne_70-2" class="cls-2" x1="557.51" y1="1919.22" x2="557.51" y2="3838.78"/><line id="Ligne_71-2" class="cls-2" x1="495.59" y1="1919.22" x2="495.59" y2="3838.78"/><line id="Ligne_72-2" class="cls-2" x1="433.67" y1="1919.22" x2="433.67" y2="3838.78"/><line id="Ligne_73-2" class="cls-2" x1="371.75" y1="1919.22" x2="371.75" y2="3838.78"/><line id="Ligne_74-2" class="cls-2" x1="309.83" y1="1919.22" x2="309.83" y2="3838.78"/><line id="Ligne_75-2" class="cls-2" x1="247.91" y1="1919.22" x2="247.91" y2="3838.78"/><line id="Ligne_76-2" class="cls-2" x1="185.99" y1="1919.22" x2="185.99" y2="3838.78"/><line id="Ligne_77-2" class="cls-2" x1="124.07" y1="1919.22" x2="124.07" y2="3838.78"/><line id="Ligne_78-2" class="cls-2" x1="62.14" y1="1919.22" x2="62.14" y2="3838.78"/><line id="Ligne_79-2" class="cls-2" x1=".22" y1="1919.22" x2=".22" y2="3838.78"/><line id="Ligne_81-2" class="cls-2" x1=".22" y1="1981.14" x2="1919.78" y2="1981.15"/><line id="Ligne_82-2" class="cls-2" x1=".22" y1="2043.07" x2="1919.78" y2="2043.07"/><line id="Ligne_83-2" class="cls-2" x1=".22" y1="2104.99" x2="1919.78" y2="2104.99"/><line id="Ligne_84-2" class="cls-2" x1=".22" y1="2166.91" x2="1919.78" y2="2166.91"/><line id="Ligne_85-2" class="cls-2" x1=".22" y1="2228.83" x2="1919.78" y2="2228.83"/><line id="Ligne_86-2" class="cls-2" x1=".22" y1="2290.75" x2="1919.78" y2="2290.75"/><line id="Ligne_87-2" class="cls-2" x1=".22" y1="2352.67" x2="1919.78" y2="2352.67"/><line id="Ligne_88-2" class="cls-2" x1=".22" y1="2414.59" x2="1919.78" y2="2414.59"/><line id="Ligne_89-2" class="cls-2" x1=".22" y1="2476.51" x2="1919.78" y2="2476.51"/><line id="Ligne_90-2" class="cls-2" x1=".22" y1="2538.43" x2="1919.78" y2="2538.44"/><line id="Ligne_91-2" class="cls-2" x1=".22" y1="2600.36" x2="1919.78" y2="2600.36"/><line id="Ligne_92-2" class="cls-2" x1=".22" y1="2662.28" x2="1919.78" y2="2662.28"/><line id="Ligne_93-2" class="cls-2" x1=".22" y1="2724.2" x2="1919.78" y2="2724.2"/><line id="Ligne_94-2" class="cls-2" x1=".22" y1="2786.12" x2="1919.78" y2="2786.12"/><line id="Ligne_95-2" class="cls-2" x1=".22" y1="2848.04" x2="1919.78" y2="2848.04"/><line id="Ligne_96-2" class="cls-2" x1=".22" y1="2909.96" x2="1919.78" y2="2909.96"/><line id="Ligne_97-2" class="cls-2" x1=".22" y1="2971.88" x2="1919.78" y2="2971.88"/><line id="Ligne_98-2" class="cls-2" x1=".22" y1="3033.8" x2="1919.78" y2="3033.8"/><line id="Ligne_99-2" class="cls-2" x1=".22" y1="3095.72" x2="1919.78" y2="3095.73"/><line id="Ligne_100-2" class="cls-2" x1=".22" y1="3157.65" x2="1919.78" y2="3157.65"/><line id="Ligne_101-2" class="cls-2" x1=".22" y1="3219.57" x2="1919.78" y2="3219.57"/><line id="Ligne_102-2" class="cls-2" x1=".22" y1="3281.49" x2="1919.78" y2="3281.49"/><line id="Ligne_103-2" class="cls-2" x1=".22" y1="3343.41" x2="1919.78" y2="3343.41"/><line id="Ligne_104-2" class="cls-2" x1=".22" y1="3405.33" x2="1919.78" y2="3405.33"/><line id="Ligne_105-2" class="cls-2" x1=".22" y1="3467.25" x2="1919.78" y2="3467.25"/><line id="Ligne_106-2" class="cls-2" x1=".22" y1="3529.17" x2="1919.78" y2="3529.17"/><line id="Ligne_107-2" class="cls-2" x1=".22" y1="3591.09" x2="1919.78" y2="3591.09"/><line id="Ligne_108-2" class="cls-2" x1=".22" y1="3653.01" x2="1919.78" y2="3653.01"/><line id="Ligne_109-2" class="cls-2" x1=".22" y1="3714.93" x2="1919.78" y2="3714.94"/><line id="Ligne_110-2" class="cls-2" x1=".22" y1="3776.86" x2="1919.78" y2="3776.86"/><line id="Ligne_111-2" class="cls-2" x1=".22" y1="3838.78" x2="1919.78" y2="3838.78"/></g></g></g></g></g></svg>